<?xml version="1.0" encoding="utf-8"?>
<!-- Generator: Adobe Illustrator 27.2.0, SVG Export Plug-In . SVG Version: 6.00 Build 0)  -->
<svg version="1.1" xmlns="http://www.w3.org/2000/svg" xmlns:xlink="http://www.w3.org/1999/xlink" x="0px" y="0px"
	 viewBox="0 0 500 500" style="enable-background:new 0 0 500 500;" xml:space="preserve">
<style type="text/css">
	.st0{opacity:0.5;fill:url(#SVGID_1_);}
	.st1{fill:url(#SVGID_00000065068759803539925260000014737833532805130626_);}
	.st2{fill:url(#SVGID_00000114765550624997233930000012598466286485030572_);}
	.st3{fill:url(#SVGID_00000103971097248521800250000016346695064282283198_);}
	.st4{fill:url(#SVGID_00000054260101935559711890000001148996833094384273_);}
	.st5{fill:url(#SVGID_00000072247647792721366040000016255871059566409140_);}
	.st6{fill:#163E6D;}
	.st7{fill:#235091;}
	.st8{fill:url(#SVGID_00000004523279620914483700000008518196427471604906_);}
	.st9{fill:url(#SVGID_00000107549390258333377280000008798594415027857558_);}
	.st10{fill:url(#SVGID_00000121265234292277561690000004928310016317158789_);}
	.st11{fill:url(#SVGID_00000004543546281044755110000008770832869513996714_);}
	.st12{fill:url(#SVGID_00000077319746576190484380000002758511960483664033_);}
	.st13{fill:#005448;}
	.st14{fill:url(#SVGID_00000016775552242930541120000002635190186355357087_);}
	.st15{fill:#E6E6E6;}
	.st16{fill:#BFBFBF;}
	.st17{fill:#FFFFFF;}
	.st18{fill:url(#SVGID_00000169541388562529495670000007757652193383596985_);}
	.st19{fill:#D9D9D9;}
	.st20{fill:url(#SVGID_00000123420841866805224460000013272776392665114020_);}
	.st21{fill:url(#SVGID_00000183246460119583574290000014441720282401629107_);}
	.st22{fill:url(#SVGID_00000150082186427786464490000005568867814564885404_);}
	.st23{fill:#CFCFCF;}
	.st24{fill:url(#SVGID_00000132070729062120344130000002810460982877169813_);}
	.st25{fill:url(#SVGID_00000065783966644757123930000003771825617599137199_);}
	.st26{fill:url(#SVGID_00000138539100606445386460000003562750320516215976_);}
	.st27{fill:url(#SVGID_00000102540075654553220850000007312360168497184181_);}
</style>
<g id="BACKGROUND">
</g>
<g id="OBJECTS">
	<g>
		<g>
			<linearGradient id="SVGID_1_" gradientUnits="userSpaceOnUse" x1="72.0873" y1="340.1371" x2="411.8096" y2="340.1371">
				<stop  offset="0" style="stop-color:#1D4B9E"/>
				<stop  offset="1" style="stop-color:#36DCF2"/>
			</linearGradient>
			<path class="st0" d="M75.1,327.9l186.7,107.8c6.2,3.6,13.9,3.6,20.2,0l129.9-75L206,241.9l-131,75.6
				C71.1,319.8,71.1,325.6,75.1,327.9z"/>
			
				<linearGradient id="SVGID_00000116227635892167454680000013236178178371782026_" gradientUnits="userSpaceOnUse" x1="72.0873" y1="317.6846" x2="411.8095" y2="317.6846">
				<stop  offset="0" style="stop-color:#0F3F84"/>
				<stop  offset="0.6649" style="stop-color:#36DCF2"/>
				<stop  offset="1" style="stop-color:#0F3F84"/>
			</linearGradient>
			<path style="fill:url(#SVGID_00000116227635892167454680000013236178178371782026_);" d="M394.3,330.4L206,221.7L79.8,294.6
				l0.3-1.8l-8-1.1v6.2l0,0c0,2.1,0.9,4.2,3,5.3L261.8,411c6.2,3.6,13.9,3.6,20.2,0l129.9-75v-6.3L394.3,330.4z"/>
			
				<linearGradient id="SVGID_00000167384011174584379330000014510362507481040273_" gradientUnits="userSpaceOnUse" x1="72.0873" y1="309.1371" x2="411.8096" y2="309.1371">
				<stop  offset="0" style="stop-color:#1D4B9E"/>
				<stop  offset="1" style="stop-color:#36DCF2"/>
			</linearGradient>
			<path style="fill:url(#SVGID_00000167384011174584379330000014510362507481040273_);" d="M75.1,296.9l186.7,107.8
				c6.2,3.6,13.9,3.6,20.2,0l129.9-75L206,210.9l-131,75.6C71.1,288.8,71.1,294.6,75.1,296.9z"/>
		</g>
		<g>
			
				<linearGradient id="SVGID_00000059275699362182039210000007718013964056813233_" gradientUnits="userSpaceOnUse" x1="219.9438" y1="51.7233" x2="398.7456" y2="337.866">
				<stop  offset="0" style="stop-color:#1D4B9E"/>
				<stop  offset="0.2378" style="stop-color:#36DCF2"/>
				<stop  offset="0.4757" style="stop-color:#1D4B9E"/>
				<stop  offset="0.6243" style="stop-color:#36DCF2"/>
				<stop  offset="1" style="stop-color:#1D4B9E"/>
			</linearGradient>
			<path style="fill:url(#SVGID_00000059275699362182039210000007718013964056813233_);" d="M402.9,167.1L215.3,58.7
				c-2.1-1.2-4.6-1-6.4,0.2l0,0l-5.3,3l1.7,2.1l0.8,0.1v146.8l193.6,111.8l-0.4,0.8l6.8,9.5l5.7-3.3l0.1-147
				C411.9,176.2,408.5,170.3,402.9,167.1z"/>
			
				<linearGradient id="SVGID_00000102522547189713384500000009410472984066523312_" gradientUnits="userSpaceOnUse" x1="303.225" y1="333.0149" x2="303.225" y2="61.2293">
				<stop  offset="0" style="stop-color:#1D4B9E"/>
				<stop  offset="1" style="stop-color:#36DCF2"/>
			</linearGradient>
			<path style="fill:url(#SVGID_00000102522547189713384500000009410472984066523312_);" d="M200.3,214.2V67.4
				c0-4.7,5.1-7.7,9.2-5.3l187.6,108.3c5.6,3.2,9,9.2,9,15.6l-0.1,147L200.3,214.2z"/>
		</g>
		
			<linearGradient id="SVGID_00000163756802618158243980000008394395474572428721_" gradientUnits="userSpaceOnUse" x1="207.8335" y1="195.3495" x2="399.4112" y2="195.3495">
			<stop  offset="0" style="stop-color:#1D4B9E"/>
			<stop  offset="1" style="stop-color:#033660"/>
		</linearGradient>
		<polygon style="fill:url(#SVGID_00000163756802618158243980000008394395474572428721_);" points="207.8,210.9 399.4,321.5 
			399.4,179.9 207.8,69.2 		"/>
		<g>
			<g>
				<polygon class="st6" points="357.5,324.3 368.9,331 375.3,327.3 363.9,320.7 				"/>
				<polygon class="st6" points="339.5,332.2 352.9,340.1 365.1,333.1 351.6,325.3 				"/>
				<polygon class="st6" points="322.6,322.4 336.1,330.3 348.2,323.3 334.7,315.5 				"/>
				<polygon class="st6" points="305.7,312.6 319.2,320.4 331.3,313.5 317.8,305.7 				"/>
				<polygon class="st6" points="288.9,302.8 302.3,310.6 314.5,303.7 301,295.8 				"/>
				<polygon class="st6" points="272,293 285.5,300.8 297.6,293.9 284.1,286 				"/>
				<polygon class="st6" points="255.1,283.2 268.6,291 280.7,284.1 267.3,276.2 				"/>
				<polygon class="st6" points="238.3,273.3 251.8,281.2 263.9,274.3 250.4,266.4 				"/>
				<polygon class="st6" points="221.4,263.5 234.9,271.4 247,264.4 233.5,256.6 				"/>
				<polygon class="st6" points="280.8,334.9 294.3,342.8 306.4,335.8 293,328 				"/>
				<polygon class="st6" points="264,325.1 277.5,332.9 289.6,326 276.1,318.2 				"/>
				<polygon class="st6" points="247.1,315.3 260.6,323.1 272.7,316.2 259.2,308.3 				"/>
				<polygon class="st6" points="230.2,305.5 243.7,313.3 255.8,306.4 242.4,298.5 				"/>
				<polygon class="st6" points="213.4,295.6 226.9,303.5 239,296.6 225.5,288.7 				"/>
				<polygon class="st6" points="189.8,281.9 210,293.7 222.1,286.7 201.9,275 				"/>
				<polygon class="st6" points="204.6,253.8 217.9,261.5 230,254.6 216.7,246.8 				"/>
				<polygon class="st6" points="187.4,243.8 200.7,251.5 212.8,244.6 199.5,236.8 				"/>
				<polygon class="st6" points="323.5,341.4 337,349.2 349.1,342.3 335.6,334.4 				"/>
				<polygon class="st6" points="306.7,331.5 320.1,339.4 332.3,332.4 318.8,324.6 				"/>
				<g>
					<polygon class="st6" points="156.6,281.3 170,289.2 182.2,282.2 168.7,274.4 					"/>
					<polygon class="st6" points="139.7,271.5 153.2,279.4 165.3,272.4 151.8,264.6 					"/>
				</g>
				<polygon class="st6" points="173.8,291 271.1,347.6 283.2,340.7 186,284.1 				"/>
				<polygon class="st6" points="289.8,321.7 303.3,329.6 315.4,322.6 301.9,314.8 				"/>
				<polygon class="st6" points="272.9,311.9 286.4,319.8 298.5,312.8 285,305 				"/>
				<polygon class="st6" points="256.1,302.1 269.5,309.9 281.7,303 268.2,295.2 				"/>
				<polygon class="st6" points="239.2,292.3 252.7,300.1 264.8,293.2 251.3,285.3 				"/>
				<polygon class="st6" points="222.3,282.5 235.8,290.3 247.9,283.4 234.5,275.5 				"/>
				<polygon class="st6" points="205.5,272.6 219,280.5 231.1,273.6 217.6,265.7 				"/>
				<polygon class="st6" points="171.7,253 202,270.6 214.1,263.7 183.8,246 				"/>
				<polygon class="st6" points="155.7,262.1 187.7,280.7 199.8,273.8 167.8,255.2 				"/>
				<g>
					<polygon class="st6" points="274.6,348.9 306.6,367.5 312.7,364 280.7,345.4 					"/>
					<polygon class="st6" points="285.2,355 296,361.3 308.1,354.4 297.3,348.1 					"/>
				</g>
				<polygon class="st6" points="297.5,344.6 321.1,358.3 333.2,351.4 309.6,337.6 				"/>
				<polygon class="st6" points="342.1,315.4 353.5,322 359.9,318.3 348.5,311.7 				"/>
				<polygon class="st6" points="326.7,306.4 338.1,313 344.5,309.4 333.1,302.8 				"/>
				<polygon class="st6" points="311.3,297.5 322.7,304.1 329.1,300.4 317.7,293.8 				"/>
				<polygon class="st6" points="295.9,288.5 307.3,295.1 313.7,291.4 302.3,284.8 				"/>
				<polygon class="st6" points="280.5,279.5 291.9,286.1 298.3,282.5 286.9,275.9 				"/>
				<polygon class="st6" points="265.1,270.6 276.5,277.2 282.9,273.5 271.5,266.9 				"/>
				<polygon class="st6" points="249.7,261.6 261.1,268.2 267.5,264.6 256.1,258 				"/>
				<polygon class="st6" points="234.3,252.7 245.7,259.3 252.1,255.6 240.7,249 				"/>
				<polygon class="st6" points="218.9,243.7 230.3,250.3 236.7,246.6 225.3,240 				"/>
				<polygon class="st6" points="203.5,234.7 214.9,241.3 221.3,237.7 209.9,231.1 				"/>
			</g>
			<path class="st6" d="M251.4,341.6l-66.2-38.2c-2-1.1-4.4-1.1-6.3,0l-28.9,16.5c-1.5,0.9-1.5,3.1,0,3.9l66.5,38.4
				c1.9,1.1,4.2,1.1,6.1,0l29-16.6C252.9,344.8,252.9,342.5,251.4,341.6z"/>
		</g>
		<path class="st7" d="M315.7,129.1c0.6,1,1.6,1.5,2.2,1.1s0.7-1.5,0.1-2.5c-0.6-1-1.6-1.5-2.2-1.1
			C315.2,127,315.1,128.1,315.7,129.1z"/>
		<g>
			
				<linearGradient id="SVGID_00000107565809386805929830000017321872256052598922_" gradientUnits="userSpaceOnUse" x1="186.8935" y1="172.5131" x2="404.3584" y2="172.5131">
				<stop  offset="0" style="stop-color:#25F26E"/>
				<stop  offset="1" style="stop-color:#36DCF2"/>
			</linearGradient>
			<polygon style="fill:url(#SVGID_00000107565809386805929830000017321872256052598922_);" points="404.4,258.2 404.4,212.4 
				186.9,86.9 186.9,132.5 			"/>
			
				<linearGradient id="SVGID_00000181051696224661806620000005967566097163508392_" gradientUnits="userSpaceOnUse" x1="186.8935" y1="148.9794" x2="406.7184" y2="148.9794">
				<stop  offset="0" style="stop-color:#5FFF94"/>
				<stop  offset="1" style="stop-color:#69FFFF"/>
			</linearGradient>
			<polygon style="fill:url(#SVGID_00000181051696224661806620000005967566097163508392_);" points="186.9,86.9 189.2,85.5 
				406.7,211.1 404.4,212.4 			"/>
			
				<linearGradient id="SVGID_00000147939215142625390250000008626095457633275826_" gradientUnits="userSpaceOnUse" x1="299.0992" y1="151.6487" x2="305.6627" y2="140.2805">
				<stop  offset="0" style="stop-color:#FFFFFF"/>
				<stop  offset="0.1223" style="stop-color:#FFFFFF;stop-opacity:0.8777"/>
				<stop  offset="1" style="stop-color:#FFFFFF;stop-opacity:0"/>
			</linearGradient>
			<polygon style="fill:url(#SVGID_00000147939215142625390250000008626095457633275826_);" points="186.9,86.9 200.3,79.5 
				417.9,205.1 404.4,212.4 			"/>
			
				<linearGradient id="SVGID_00000083079058434663173660000004892505350285029255_" gradientUnits="userSpaceOnUse" x1="405.5384" y1="258.1595" x2="405.5384" y2="211.1274">
				<stop  offset="0" style="stop-color:#2ADB65"/>
				<stop  offset="1" style="stop-color:#11BECC"/>
			</linearGradient>
			<polygon style="fill:url(#SVGID_00000083079058434663173660000004892505350285029255_);" points="404.4,212.4 406.7,211.1 
				406.7,256.8 404.4,258.2 			"/>
			
				<linearGradient id="SVGID_00000070114823143180399290000001256867650363705021_" gradientUnits="userSpaceOnUse" x1="404.3584" y1="231.1553" x2="419.2226" y2="231.1553">
				<stop  offset="0" style="stop-color:#FFFFFF"/>
				<stop  offset="0.1223" style="stop-color:#FFFFFF;stop-opacity:0.8777"/>
				<stop  offset="1" style="stop-color:#FFFFFF;stop-opacity:0"/>
			</linearGradient>
			<polygon style="fill:url(#SVGID_00000070114823143180399290000001256867650363705021_);" points="404.4,212.4 419.2,204.2 
				419.2,249.8 404.4,258.2 			"/>
			<g>
				<path class="st13" d="M214,130.9c0,2.7-1.6,3.9-3.6,2.8c-2-1.1-3.6-4.2-3.6-6.9c0-2.7,1.6-3.9,3.6-2.8
					C212.4,125.1,214,128.2,214,130.9z"/>
				<path class="st13" d="M225.9,137.6c0,2.7-1.6,3.9-3.6,2.8c-2-1.1-3.6-4.2-3.6-6.9c0-2.7,1.6-3.9,3.6-2.8
					C224.3,131.8,225.9,134.9,225.9,137.6z"/>
				<path class="st13" d="M237.8,144.3c0,2.7-1.6,3.9-3.6,2.8c-2-1.1-3.6-4.2-3.6-6.9c0-2.7,1.6-3.9,3.6-2.8
					C236.2,138.5,237.8,141.6,237.8,144.3z"/>
				<path class="st13" d="M249.7,151c0,2.7-1.6,3.9-3.6,2.8c-2-1.1-3.6-4.2-3.6-6.9s1.6-3.9,3.6-2.8
					C248.1,145.2,249.7,148.3,249.7,151z"/>
				<path class="st13" d="M261.7,157.7c0,2.7-1.6,3.9-3.6,2.8c-2-1.1-3.6-4.2-3.6-6.9c0-2.7,1.6-3.9,3.6-2.8
					C260,152,261.7,155.1,261.7,157.7z"/>
				<path class="st13" d="M273.6,164.4c0,2.7-1.6,3.9-3.6,2.8s-3.6-4.2-3.6-6.9c0-2.7,1.6-3.9,3.6-2.8S273.6,161.8,273.6,164.4z"/>
				<path class="st13" d="M285.5,171.2c0,2.7-1.6,3.9-3.6,2.8c-2-1.1-3.6-4.2-3.6-6.9c0-2.7,1.6-3.9,3.6-2.8
					C283.9,165.4,285.5,168.5,285.5,171.2z"/>
				<path class="st13" d="M297.4,177.9c0,2.7-1.6,3.9-3.6,2.8c-2-1.1-3.6-4.2-3.6-6.9s1.6-3.9,3.6-2.8
					C295.8,172.1,297.4,175.2,297.4,177.9z"/>
				<path class="st13" d="M309.4,184.6c0,2.7-1.6,3.9-3.6,2.8c-2-1.1-3.6-4.2-3.6-6.9c0-2.7,1.6-3.9,3.6-2.8
					C307.7,178.8,309.4,181.9,309.4,184.6z"/>
				<path class="st13" d="M321.3,191.3c0,2.7-1.6,3.9-3.6,2.8c-2-1.1-3.6-4.2-3.6-6.9c0-2.7,1.6-3.9,3.6-2.8
					C319.6,185.6,321.3,188.6,321.3,191.3z"/>
				<path class="st13" d="M333.2,198c0,2.7-1.6,3.9-3.6,2.8c-2-1.1-3.6-4.2-3.6-6.9s1.6-3.9,3.6-2.8
					C331.6,192.3,333.2,195.4,333.2,198z"/>
				<path class="st13" d="M345.1,204.8c0,2.7-1.6,3.9-3.6,2.8c-2-1.1-3.6-4.2-3.6-6.9c0-2.7,1.6-3.9,3.6-2.8
					C343.5,199,345.1,202.1,345.1,204.8z"/>
				<path class="st13" d="M357,211.5c0,2.7-1.6,3.9-3.6,2.8c-2-1.1-3.6-4.2-3.6-6.9c0-2.7,1.6-3.9,3.6-2.8
					C355.4,205.7,357,208.8,357,211.5z"/>
				<path class="st13" d="M369,218.2c0,2.7-1.6,3.9-3.6,2.8c-2-1.1-3.6-4.2-3.6-6.9c0-2.7,1.6-3.9,3.6-2.8
					C367.3,212.4,369,215.5,369,218.2z"/>
				<path class="st13" d="M380.9,224.9c0,2.7-1.6,3.9-3.6,2.8c-2-1.1-3.6-4.2-3.6-6.9c0-2.7,1.6-3.9,3.6-2.8
					C379.2,219.1,380.9,222.2,380.9,224.9z"/>
			</g>
		</g>
		<g>
			
				<linearGradient id="SVGID_00000014610580221472910000000012656852813421903752_" gradientUnits="userSpaceOnUse" x1="258.7896" y1="231.9622" x2="320.5478" y2="231.9622">
				<stop  offset="0" style="stop-color:#F96E8D"/>
				<stop  offset="1" style="stop-color:#FFEB33"/>
			</linearGradient>
			<polygon style="fill:url(#SVGID_00000014610580221472910000000012656852813421903752_);" points="320.5,263.1 320.5,236.5 
				258.8,200.9 258.8,227.4 			"/>
			<polygon class="st15" points="258.8,200.9 264.2,197.7 326,233.4 320.5,236.5 			"/>
			<polygon class="st16" points="320.5,236.5 326,233.4 326,259.9 320.5,263.1 			"/>
			<g>
				<path class="st17" d="M264.3,212.7l2.6,1.5c1.9,1.1,2.4,2.8,2.4,4c0,1.2-0.7,2-1.8,1.5l2.1,5.6l-1.2-0.7l-1.9-5.3l-1.1-0.6v4.3
					l-1-0.6V212.7z M265.3,217.5l1.3,0.7c0.8,0.5,1.6,0.7,1.6-0.7c0-1.3-0.8-2-1.6-2.5l-1.3-0.7V217.5z"/>
				<path class="st17" d="M271.2,216.6l4.7,2.7v1.2l-3.8-2.1v2.9l3.5,2v1.2l-3.5-2v3.1l3.9,2.2v1.2l-4.9-2.8V216.6z"/>
				<path class="st17" d="M284.4,228.4v4.8c-0.7,0.2-1.9-0.2-2.8-0.7c-2.5-1.4-3.9-4.6-3.9-7.3c0-2.9,1.6-4.2,3.8-2.9
					c1.4,0.8,2.2,1.7,2.7,2.8l-0.7,0.6c-0.6-1.1-1.3-1.8-2-2.2c-1.7-1-2.8,0.1-2.8,2.3c0,2.2,1.2,4.5,2.9,5.5
					c0.7,0.4,1.4,0.6,1.8,0.5V229l-1.6-0.9v-1.2L284.4,228.4z"/>
				<path class="st17" d="M286.7,225.4l1,0.6v9.6l-1-0.6V225.4z"/>
				<path class="st17" d="M290.3,235.1c0.4,0.9,1,1.6,1.6,1.9c0.7,0.4,1.5,0.3,1.5-0.8c0-2.2-3.6-2.9-3.6-6.7c0-1.1,0.7-2.3,2.5-1.3
					c0.8,0.5,1.6,1.1,2.1,2.3l-0.8,0.5c-0.2-0.6-0.7-1.3-1.3-1.6c-1.1-0.6-1.4,0.1-1.4,0.7c0,2.4,3.6,3.1,3.6,6.5
					c0,1.9-1.1,2.3-2.6,1.5c-0.9-0.5-1.9-1.5-2.3-2.7L290.3,235.1z"/>
				<path class="st17" d="M297.9,233.1l-2.4-1.4v-1.2l5.7,3.3v1.2l-2.4-1.4v8.4l-1-0.6V233.1z"/>
				<path class="st17" d="M302.9,234.7l4.7,2.7v1.2l-3.8-2.1v2.9l3.5,2v1.2l-3.5-2v3.1l3.9,2.2v1.2l-4.9-2.8V234.7z"/>
				<path class="st17" d="M309.8,238.6l2.6,1.5c1.9,1.1,2.4,2.8,2.4,4c0,1.2-0.7,2-1.8,1.5l2.1,5.6l-1.2-0.7l-1.9-5.3l-1.1-0.6v4.3
					l-1-0.6V238.6z M310.8,243.4l1.3,0.7c0.8,0.5,1.6,0.7,1.6-0.7s-0.8-2-1.6-2.5l-1.3-0.7V243.4z"/>
			</g>
		</g>
		
			<radialGradient id="SVGID_00000021103548287240450380000015751789837702312346_" cx="249.7272" cy="299.5078" r="77.0218" gradientTransform="matrix(1 0 0 0.6484 0 104.7364)" gradientUnits="userSpaceOnUse">
			<stop  offset="0" style="stop-color:#25F26E"/>
			<stop  offset="8.263952e-02" style="stop-color:#29EC91;stop-opacity:0.9174"/>
			<stop  offset="0.1735" style="stop-color:#2DE7AF;stop-opacity:0.8265"/>
			<stop  offset="0.2743" style="stop-color:#31E3C7;stop-opacity:0.7257"/>
			<stop  offset="0.3868" style="stop-color:#33E0DA;stop-opacity:0.6132"/>
			<stop  offset="0.5176" style="stop-color:#35DEE8;stop-opacity:0.4824"/>
			<stop  offset="0.6833" style="stop-color:#36DCF0;stop-opacity:0.3167"/>
			<stop  offset="1" style="stop-color:#36DCF2;stop-opacity:0"/>
		</radialGradient>
		
			<ellipse style="fill:url(#SVGID_00000021103548287240450380000015751789837702312346_);" cx="249.7" cy="298.9" rx="77" ry="49.9"/>
		<g>
			<path class="st19" d="M230.3,188.5c0,0-1.4,4.6-1.5,6.4s4.3,13,4.3,13l2.1-15.7l-2.7-4L230.3,188.5z"/>
			
				<linearGradient id="SVGID_00000145044600548097130200000003452306702056497588_" gradientUnits="userSpaceOnUse" x1="229.8471" y1="182.2125" x2="238.2501" y2="182.2125">
				<stop  offset="0" style="stop-color:#23BEE2"/>
				<stop  offset="1" style="stop-color:#0771A5"/>
			</linearGradient>
			<path style="fill:url(#SVGID_00000145044600548097130200000003452306702056497588_);" d="M238.3,174.2c-4-0.7-6.8,1.3-7,5.5l0,0
				l-1.4,8.9c0,0,1.9,2.1,3.8,1.7c1.9-0.4,3.7-1.6,3.7-4c0.1-2.4,0.8-7.8,0.8-7.8l-1,0.2C237.9,176.2,238.3,174.2,238.3,174.2z"/>
			
				<linearGradient id="SVGID_00000011032605179084337570000011807857324496896947_" gradientUnits="userSpaceOnUse" x1="-1545.8406" y1="302.4234" x2="-1528.0516" y2="302.4234" gradientTransform="matrix(-1 0 0 1 -1280.327 0)">
				<stop  offset="0" style="stop-color:#083A63"/>
				<stop  offset="1" style="stop-color:#062638"/>
			</linearGradient>
			<path style="fill:url(#SVGID_00000011032605179084337570000011807857324496896947_);" d="M248,300.6c0.1,1.7-1.6,7,3.2,6.9
				c3.7,0.4,11.5-5.7,13.7-7c2.2-1.3-1.5-4.8-10.8-2.5C252.5,298.8,248,300.6,248,300.6z"/>
			
				<linearGradient id="SVGID_00000156572072681425605380000012090069815837042321_" gradientUnits="userSpaceOnUse" x1="-1530.0798" y1="292.7309" x2="-1512.2908" y2="292.7309" gradientTransform="matrix(-1 0 0 1 -1280.327 0)">
				<stop  offset="0" style="stop-color:#083A63"/>
				<stop  offset="1" style="stop-color:#062638"/>
			</linearGradient>
			<path style="fill:url(#SVGID_00000156572072681425605380000012090069815837042321_);" d="M232.2,290.9c0.1,1.7-1.6,7,3.2,6.9
				c3.7,0.4,11.5-5.7,13.7-7c2.2-1.3-1.5-4.8-10.8-2.5C236.7,289.1,232.2,290.9,232.2,290.9z"/>
			<path class="st23" d="M293.5,177.5l-21.3,21.3l-3.2-3.4c0,0-9.5,1.7-6.2,5.5c3.3,3.8,6.6,5.4,10.4,5.7
				c3.2,0.3,24.3-25.6,24.3-25.6c1.4-0.8,4.5-3.8,5.1-8.5c-0.3-1.6-2.5-4.9-4.8-5.2c-1.6,0-2.9,3.8-3.3,5.1c-0.4,1.3-1,0.3-1.9-0.6
				c-0.9-0.9-2-0.3-0.4,2.4C292.8,175.3,292.2,176.7,293.5,177.5z"/>
			
				<linearGradient id="SVGID_00000103235264133145435530000007947049288890760331_" gradientUnits="userSpaceOnUse" x1="-1537.9464" y1="262.6953" x2="-1510.312" y2="262.6953" gradientTransform="matrix(-1 0 0 1 -1280.327 0)">
				<stop  offset="0" style="stop-color:#FFBA1F"/>
				<stop  offset="3.716052e-03" style="stop-color:#FAB820"/>
				<stop  offset="4.434037e-02" style="stop-color:#CDA02C"/>
				<stop  offset="8.872551e-02" style="stop-color:#A38B37"/>
				<stop  offset="0.1378" style="stop-color:#7D7841"/>
				<stop  offset="0.1911" style="stop-color:#5D6749"/>
				<stop  offset="0.2501" style="stop-color:#415950"/>
				<stop  offset="0.3168" style="stop-color:#2B4E56"/>
				<stop  offset="0.3945" style="stop-color:#1A455B"/>
				<stop  offset="0.4907" style="stop-color:#0F3F5E"/>
				<stop  offset="0.6256" style="stop-color:#083C60"/>
				<stop  offset="1" style="stop-color:#063B60"/>
			</linearGradient>
			<path style="fill:url(#SVGID_00000103235264133145435530000007947049288890760331_);" d="M233.4,222.3l5.7-0.6l0.6,2.8l6.6,1.3
				l11.4,2.3l-1,38.8l-1.8,35.8c0,0-3,2.7-7.1,0c0,0-4.8-27.4-1.5-37.1c-1.2-3.9-1-10.1-3.2-14l-0.3,14.7l-3.7,29
				c-7.1,1.8-7.1-2.5-7.1-2.5c-1.6-15.2,0.8-29.9,0.8-29.9C233,253.6,226,228.5,233.4,222.3z"/>
			
				<linearGradient id="SVGID_00000131353392022640585520000007661656957938239917_" gradientUnits="userSpaceOnUse" x1="-1541.401" y1="205.337" x2="-1509.0437" y2="205.337" gradientTransform="matrix(-1 0 0 1 -1280.327 0)">
				<stop  offset="0" style="stop-color:#ECFF7D"/>
				<stop  offset="0.3784" style="stop-color:#36DCF2"/>
				<stop  offset="1" style="stop-color:#34A8E2"/>
			</linearGradient>
			<path style="fill:url(#SVGID_00000131353392022640585520000007661656957938239917_);" d="M248.9,177.2c-1.8,1.6-8.8,0.3-8.7-2.3
				c-1.6-0.6-2.8-1.2-4.4-0.8c-3.9,1-3.3,7.2-3.7,10.4c-0.6,5,0.5,15.8,0.5,26.8c0,5.5-3.8,11.4-4,15.4c0,3.7,9.3,8.3,16.7,9.7
				c5.1,0.9,13.2-0.9,13.2-2.6c0-1.6,0.4-27.3,1.6-31.8c1.2-4.6,1.3-16.1-0.6-18.4C257.2,180.7,248.9,177.2,248.9,177.2z"/>
			<g>
				<path class="st19" d="M256.7,156.1c1.3,2.7,0,4.2,0.1,6.2c0,1.8,1.3,9.3-2.2,10.1c-2.5,0.6-4.2,0.3-4.2,0.3l-1.8,5.1
					c-1,2-9.3,1.1-8.6-3l0.4-3.6c-1.9-0.9-5.4-4-5.4-10.1c0-6.1,6.6-10.9,12.5-10.9C253.5,150.2,256.4,155.3,256.7,156.1z"/>
				
					<linearGradient id="SVGID_00000032608568123056448490000000917492914996663705_" gradientUnits="userSpaceOnUse" x1="-1537.7424" y1="158.5846" x2="-1513.7251" y2="158.5846" gradientTransform="matrix(-1 0 0 1 -1280.327 0)">
					<stop  offset="0" style="stop-color:#40FFA8"/>
					<stop  offset="5.545092e-02" style="stop-color:#3FD98D"/>
					<stop  offset="0.1263" style="stop-color:#3FAF71"/>
					<stop  offset="0.2034" style="stop-color:#3E8B57"/>
					<stop  offset="0.286" style="stop-color:#3E6C42"/>
					<stop  offset="0.3757" style="stop-color:#3E5230"/>
					<stop  offset="0.4753" style="stop-color:#3D3F23"/>
					<stop  offset="0.5903" style="stop-color:#3D3119"/>
					<stop  offset="0.7344" style="stop-color:#3D2914"/>
					<stop  offset="1" style="stop-color:#3D2712"/>
				</linearGradient>
				<path style="fill:url(#SVGID_00000032608568123056448490000000917492914996663705_);" d="M251.6,163.9c-1-0.6-3.3,2.3-0.3,4.9
					c0.1,0.7-0.4,1.8-1.1,2.6c-0.7,0.8,0.6,0.9-1.4,1.9c-2,1-5.5,0.3-6.2,0.6c0-0.7-1.2-0.3-2.2-2.3c-1.4-1.8-3.3-1.8-4.9-5.6
					c0,0-1.2-2.1-1.1-4.2c0,0-0.6,0.9-0.5,2.7c0,0-2-6,2.8-9.8c0,0-1.7,0.1-3,1.4c0,0,1.8-2.9,5-3.2c1.9-0.9,1.5-2.3,5.5-2.9
					c4-0.6,3.8-3.4,3.2-4.5c0,0,2.4,1.9,2.2,3.5c0,0,1.6-2.8-0.7-5.8c0,0,3.7,1.7,3.5,6.9c0,0,0.8-2.1,0.3-4.1
					c0.9,0.3,6,6.9,4.3,10.9c-1.7,4.1-5.3,3.9-5.2,5.2C252,163.6,251.6,163.9,251.6,163.9z"/>
			</g>
			
				<linearGradient id="SVGID_00000097500011065516685250000006022566202940776092_" gradientUnits="userSpaceOnUse" x1="-1549.7202" y1="192.1284" x2="-1532.8658" y2="192.1284" gradientTransform="matrix(-1 0 0 1 -1280.327 0)">
				<stop  offset="0" style="stop-color:#23BEE2"/>
				<stop  offset="1" style="stop-color:#0771A5"/>
			</linearGradient>
			<path style="fill:url(#SVGID_00000097500011065516685250000006022566202940776092_);" d="M256.9,181.5c4.8,1.4,8,6.7,12.5,13.6
				c-0.1,1.5-3.1,6.6-6.5,8c0,0-5.8-5.9-7.8-9.1C251.8,188.8,251.1,179.7,256.9,181.5z"/>
		</g>
	</g>
</g>
<g id="DESIGNED_BY_FREEPIK">
</g>
</svg>
